<svg width="0" height="0" class="hidden">
  <symbol xmlns="http://www.w3.org/2000/svg" viewBox="0 0 13 16" id="audio">
    <path d="M3 12a3 3 0 0 1-3-3V7a3 3 0 0 1 3-3h1L9 .01V16l-5-4H3zm10-4a4 4 0 0 1-3 3.86V9.72a1.979 1.979 0 0 0 0-3.44V4.14A4 4 0 0 1 13 8z" fill-rule="evenodd"></path>
  </symbol>
  <symbol xmlns="http://www.w3.org/2000/svg" viewBox="0 0 15 15" id="comment">
    <path d="M12.191 12.18H6.566l-1.875 2.81-1.875-2.81A2.815 2.815 0 0 1 .003 9.36V2.8A2.813 2.813 0 0 1 2.816-.01h9.375A2.812 2.812 0 0 1 15 2.8v6.56a2.814 2.814 0 0 1-2.809 2.82z" fill-rule="evenodd"></path>
  </symbol>
  <symbol xmlns="http://www.w3.org/2000/svg" viewBox="0 0 15.969 13.88" id="heart">
    <path d="M14.79 6.81l-6.821 7.07-6.821-7.07a4 4 0 1 1 5.657-5.65l1.164 1.41 1.164-1.41a4 4 0 1 1 5.657 5.65z" fill-rule="evenodd"></path>
  </symbol>
  <symbol xmlns="http://www.w3.org/2000/svg" viewBox="0 0 16 14" id="share">
    <path d="M14 8.5V11a1 1 0 0 1-1 1H3a1 1 0 0 1-1-1V6a1.007 1.007 0 0 1 .539-.88A8.1 8.1 0 0 1 3.76 3H3a3 3 0 0 0-3 3v5a3.005 3.005 0 0 0 3 3h10a3 3 0 0 0 3-3V7zm1.6-3.7l-4 3a.984.984 0 0 1-1.047.09A.993.993 0 0 1 10 7V6a6 6 0 0 0-5.651 4A5.986 5.986 0 0 1 10 2V1a.993.993 0 0 1 .553-.89A.984.984 0 0 1 11.6.2l4 3a.994.994 0 0 1 .4.8 1.008 1.008 0 0 1-.4.8z" fill-rule="evenodd"></path>
  </symbol>
  <symbol xmlns="http://www.w3.org/2000/svg" viewBox="0 0 5 10" id="arrow">
    <path d="M.86 10L0 8.96 3.3 5 0 1.03.861 0l4.141 5z" fill-rule="evenodd"></path>
  </symbol>
</svg>